<svg width="25" height="24" viewBox="0 0 25 24" fill="none" xmlns="http://www.w3.org/2000/svg">
<path d="M20.3452 10H4.34521V18C4.34521 21 5.34521 22 8.34521 22H16.3452C19.3452 22 20.3452 21 20.3452 18V10Z" stroke="#333333" stroke-width="1.5" stroke-miterlimit="10" stroke-linecap="round" stroke-linejoin="round"/>
<path d="M21.875 7V8C21.875 9.1 21.345 10 19.875 10H4.875C3.345 10 2.875 9.1 2.875 8V7C2.875 5.9 3.345 5 4.875 5H19.875C21.345 5 21.875 5.9 21.875 7Z" stroke="#333333" stroke-width="1.5" stroke-miterlimit="10" stroke-linecap="round" stroke-linejoin="round"/>
<path d="M12.0148 4.99994H6.49478C6.15478 4.62994 6.16478 4.05994 6.52478 3.69994L7.94478 2.27994C8.31478 1.90994 8.92478 1.90994 9.29478 2.27994L12.0148 4.99994Z" stroke="#292D32" stroke-width="1.5" stroke-miterlimit="10" stroke-linecap="round" stroke-linejoin="round"/>
<path d="M18.2451 4.99994H12.7251L15.4451 2.27994C15.8151 1.90994 16.4251 1.90994 16.7951 2.27994L18.2151 3.69994C18.5751 4.05994 18.5851 4.62994 18.2451 4.99994Z" stroke="#292D32" stroke-width="1.5" stroke-miterlimit="10" stroke-linecap="round" stroke-linejoin="round"/>
<path d="M9.31494 10V15.14C9.31494 15.94 10.1949 16.41 10.8649 15.98L11.8049 15.36C12.1449 15.14 12.5749 15.14 12.9049 15.36L13.7949 15.96C14.4549 16.4 15.3449 15.93 15.3449 15.13V10H9.31494Z" stroke="#292D32" stroke-width="1.5" stroke-miterlimit="10" stroke-linecap="round" stroke-linejoin="round"/>
</svg>
