<svg width="25" height="24" viewBox="0 0 25 24" fill="none" xmlns="http://www.w3.org/2000/svg">
<path d="M10.168 3.14941C11.1846 2.33305 12.778 2.28692 13.8799 3.00684L14.0938 3.16113L20.6387 8.39648V8.39746C21.0166 8.70556 21.3446 9.18882 21.5557 9.74121C21.7657 10.2911 21.8439 10.8673 21.7715 11.3477L20.5127 18.8848C20.2636 20.3182 18.8685 21.5 17.4248 21.5H6.8252C5.452 21.5 4.16809 20.4867 3.80762 19.1641L3.74805 18.8955L2.48828 11.3574V11.3564L2.46484 11.1709C2.42672 10.7279 2.50561 10.2244 2.68945 9.74219C2.87329 9.2601 3.14965 8.83066 3.47461 8.52441L3.61719 8.40039L10.168 3.15039V3.14941ZM12.125 13.75C11.4389 13.75 10.875 14.3139 10.875 15V18C10.875 18.6861 11.4389 19.25 12.125 19.25C12.8111 19.25 13.375 18.6861 13.375 18V15C13.375 14.3139 12.8111 13.75 12.125 13.75Z" stroke="#333333"/>
</svg>
