<svg width="25" height="24" viewBox="0 0 25 24" fill="none" xmlns="http://www.w3.org/2000/svg">
<path d="M12.6451 2.90991C9.33509 2.90991 6.64509 5.59991 6.64509 8.90991V11.7999C6.64509 12.4099 6.38509 13.3399 6.07509 13.8599L4.92509 15.7699C4.21509 16.9499 4.70509 18.2599 6.00509 18.6999C10.3151 20.1399 14.9651 20.1399 19.2751 18.6999C20.4851 18.2999 21.0151 16.8699 20.3551 15.7699L19.2051 13.8599C18.9051 13.3399 18.6451 12.4099 18.6451 11.7999V8.90991C18.6451 5.60991 15.9451 2.90991 12.6451 2.90991Z" stroke="#333333" stroke-width="1.5" stroke-miterlimit="10" stroke-linecap="round"/>
<path d="M14.4949 3.19994C14.1849 3.10994 13.8649 3.03994 13.5349 2.99994C12.5749 2.87994 11.6549 2.94994 10.7949 3.19994C11.0849 2.45994 11.8049 1.93994 12.6449 1.93994C13.4849 1.93994 14.2049 2.45994 14.4949 3.19994Z" stroke="#333333" stroke-miterlimit="10" stroke-linecap="round" stroke-linejoin="round"/>
<path d="M15.645 19.0601C15.645 20.7101 14.295 22.0601 12.645 22.0601C11.825 22.0601 11.065 21.7201 10.525 21.1801C9.98502 20.6401 9.64502 19.8801 9.64502 19.0601" stroke="#292D32" stroke-miterlimit="10"/>
</svg>
