<svg width="24" height="25" viewBox="0 0 24 25" fill="none" xmlns="http://www.w3.org/2000/svg">
<path d="M5.58984 3C5.74723 3 5.90219 3.02548 6.04492 3.07422L6.18359 3.13086L6.19043 3.13379C6.32981 3.19812 6.45372 3.28413 6.55957 3.39941L6.65918 3.52441L6.66211 3.5293L8.98242 6.7998L8.98438 6.80176C9.10566 6.97021 9.19696 7.12273 9.26562 7.2627L9.32715 7.39941L9.33008 7.40723C9.40056 7.57171 9.42969 7.71417 9.42969 7.82031C9.42963 7.95958 9.39009 8.11095 9.29297 8.27051L9.28516 8.28418C9.20868 8.41949 9.09993 8.56808 8.95898 8.72559L8.80664 8.88672L8.7998 8.89355L8.04004 9.68359C7.83334 9.8938 7.7403 10.1516 7.74023 10.4297C7.74023 10.5571 7.75695 10.6684 7.78516 10.7812L7.79199 10.8086L7.80176 10.8359C7.82104 10.8873 7.84093 10.9322 7.85352 10.9619C7.86782 10.9957 7.87301 11.0097 7.87598 11.0186L7.88965 11.0605L7.91113 11.0996C8.06387 11.3796 8.28996 11.7085 8.58301 12.0791L8.89844 12.4629L8.90234 12.4668C9.24367 12.8612 9.60287 13.2626 9.98438 13.666L10.373 14.0703L10.376 14.0732C10.431 14.1283 10.4884 14.1832 10.54 14.2324L10.6865 14.374L10.6914 14.3779C10.8686 14.5509 10.8927 14.8173 10.7617 15.0156L10.6963 15.0967L8.84668 16.9463C8.67773 17.1152 8.41866 17.1417 8.2168 17.0127L8.13477 16.9473C8.07811 16.8909 8.02231 16.8373 7.9707 16.7881C7.91547 16.7354 7.86433 16.6875 7.81445 16.6377H7.81543C6.80311 15.6155 5.88943 14.5459 5.0752 13.4277H5.07617C4.37419 12.4518 3.79623 11.4819 3.35254 10.5244L3.16992 10.1143C2.72114 9.02416 2.50001 8.00081 2.5 7.04004C2.5 6.49673 2.58407 5.97966 2.74902 5.49902L2.82422 5.2959L2.8252 5.29297C3.01018 4.82282 3.29097 4.38173 3.67969 3.97559L3.85352 3.80371L3.86035 3.7959C4.42483 3.24024 5.00448 3.00004 5.58984 3Z" fill="#F2BC25" stroke="#E6AA00"/>
<path d="M16.64 15.04C16.7567 15.04 16.8928 15.064 17.0609 15.1328C17.1944 15.1874 17.3395 15.2634 17.5013 15.3643L17.6683 15.4736L20.9701 17.8174L20.975 17.8213C21.1218 17.9229 21.2227 18.0278 21.2924 18.1387L21.3519 18.251C21.4297 18.4493 21.4701 18.6318 21.4701 18.8301C21.4701 19.0513 21.4302 19.2844 21.349 19.5117L21.2728 19.6963L21.2679 19.7061C21.1553 19.9446 21.018 20.1721 20.849 20.3896L20.6693 20.6045C20.2792 21.0344 19.8627 21.3506 19.4076 21.5693L19.2719 21.6299L19.182 21.667C18.652 21.8826 18.0752 22 17.4496 22C16.5088 21.9999 15.4858 21.7781 14.3861 21.3096C13.4133 20.8951 12.4359 20.3535 11.4613 19.6816L11.0443 19.3857C10.8063 19.2087 10.5742 19.0343 10.348 18.8584L12.9261 16.2803C13.087 16.3873 13.238 16.4792 13.3783 16.5527L13.4008 16.5645L13.4242 16.5742C13.4359 16.5789 13.4524 16.5862 13.4838 16.6006C13.512 16.6135 13.5512 16.6314 13.5931 16.6494L13.6039 16.6543L13.6146 16.6582C13.7676 16.7155 13.9117 16.7305 14.0404 16.7305C14.3487 16.7304 14.603 16.6131 14.8011 16.416L15.5609 15.666L15.5638 15.6641C15.7936 15.4343 15.9928 15.2814 16.1615 15.1934L16.1761 15.1855L16.1898 15.1768C16.3513 15.0785 16.4926 15.04 16.64 15.04ZM19.182 21.668C19.18 21.6689 19.1778 21.6701 19.1761 21.6709C19.1689 21.6743 19.1625 21.6772 19.1615 21.6777C19.1628 21.6771 19.166 21.6754 19.1693 21.6738C19.1723 21.6724 19.1766 21.6703 19.182 21.668Z" fill="#F2BC25" stroke="#E6AA00"/>
</svg>
