<svg width="18" height="19" viewBox="0 0 18 19" fill="none" xmlns="http://www.w3.org/2000/svg">
<path d="M10.8975 7.60293L7.1025 11.3979C6.615 10.9104 6.315 10.2429 6.315 9.50043C6.315 8.01543 7.515 6.81543 9 6.81543C9.7425 6.81543 10.41 7.11543 10.8975 7.60293Z" stroke="#E6AA00" stroke-width="1.5" stroke-linecap="round" stroke-linejoin="round"/>
<path d="M13.365 4.82785C12.0525 3.83785 10.5525 3.29785 9 3.29785C6.3525 3.29785 3.885 4.85785 2.1675 7.55785C1.4925 8.61535 1.4925 10.3929 2.1675 11.4504C2.76 12.3804 3.45 13.1829 4.2 13.8279" stroke="#E6AA00" stroke-width="1.5" stroke-linecap="round" stroke-linejoin="round"/>
<path d="M6.315 15.1473C7.17 15.5073 8.0775 15.7023 9 15.7023C11.6475 15.7023 14.115 14.1423 15.8325 11.4423C16.5075 10.3848 16.5075 8.60727 15.8325 7.54977C15.585 7.15977 15.315 6.79227 15.0375 6.44727" stroke="#E6AA00" stroke-width="1.5" stroke-linecap="round" stroke-linejoin="round"/>
<path d="M11.6325 10.0254C11.4375 11.0829 10.575 11.9454 9.51752 12.1404" stroke="#E6AA00" stroke-width="1.5" stroke-linecap="round" stroke-linejoin="round"/>
<path d="M7.1025 11.3975L1.5 17" stroke="#E6AA00" stroke-width="1.5" stroke-linecap="round" stroke-linejoin="round"/>
<path d="M16.5 2L10.8975 7.6025" stroke="#E6AA00" stroke-width="1.5" stroke-linecap="round" stroke-linejoin="round"/>
</svg>
