<svg width="24" height="25" viewBox="0 0 24 25" fill="none" xmlns="http://www.w3.org/2000/svg">
<path d="M11.9901 2.75H11.9999C15.2607 2.75 18.9107 4.60046 20.0321 8.66113L20.1327 9.06055C21.1718 13.6433 18.6129 17.6099 15.955 20.332L15.4237 20.8594L15.4218 20.8613C14.4686 21.7872 13.2348 22.25 11.9999 22.25C10.8426 22.25 9.68538 21.8434 8.75085 21.0283L8.56628 20.8594L8.03503 20.332C5.46592 17.6998 2.98909 13.8973 3.7655 9.50684L3.8573 9.05078C4.8432 4.71281 8.6328 2.75 11.9901 2.75ZM11.9999 7.16016C9.98392 7.16021 8.34972 8.79366 8.34949 10.8096C8.34949 12.8257 9.98378 14.4599 11.9999 14.46C14.016 14.46 15.6503 12.8257 15.6503 10.8096C15.65 8.79363 14.0159 7.16016 11.9999 7.16016Z" fill="#F2BC25" stroke="#E6AA00"/>
</svg>
