<svg width="24" height="25" viewBox="0 0 24 25" fill="none" xmlns="http://www.w3.org/2000/svg">
<path d="M18.28 10.03V8.78C18.28 6.08 17.63 2.5 12 2.5C6.37 2.5 5.72 6.08 5.72 8.78V10.03C2.92 10.38 2 11.8 2 15.29V17.15C2 21.25 3.25 22.5 7.35 22.5H16.65C20.75 22.5 22 21.25 22 17.15V15.29C22 11.8 21.08 10.38 18.28 10.03ZM12 19.24C10.33 19.24 8.98 17.88 8.98 16.22C8.98 14.55 10.34 13.2 12 13.2C13.66 13.2 15.02 14.56 15.02 16.22C15.02 17.89 13.67 19.24 12 19.24ZM7.35 9.94C7.27 9.94 7.2 9.94 7.12 9.94V8.78C7.12 5.85 7.95 3.9 12 3.9C16.05 3.9 16.88 5.85 16.88 8.78V9.95C16.8 9.95 16.73 9.95 16.65 9.95H7.35V9.94Z" fill="#F2BC25"/>
</svg>
