<svg width="24" height="25" viewBox="0 0 24 25" fill="none" xmlns="http://www.w3.org/2000/svg">
<path d="M11.5 2.25C16.8739 2.25 21.25 6.62614 21.25 12C21.25 17.3739 16.8739 21.75 11.5 21.75C6.12614 21.75 1.75 17.3739 1.75 12C1.75 6.62614 6.12614 2.25 11.5 2.25ZM11.5 2.75C6.39349 2.75 2.25 6.90423 2.25 12C2.25 17.0958 6.39349 21.25 11.5 21.25C16.6065 21.25 20.75 17.0958 20.75 12C20.75 6.90423 16.6065 2.75 11.5 2.75Z" fill="#292D32" stroke="#9E9E9E"/>
<path d="M19.8237 20.3237C19.9067 20.2408 20.0421 20.2301 20.1382 20.2925L20.1763 20.3237L22.1763 22.3237C22.2709 22.4185 22.271 22.5816 22.1763 22.6763C22.125 22.7276 22.0641 22.7495 21.9995 22.7495C21.9513 22.7494 21.9053 22.7373 21.8638 22.7095L21.8237 22.6763L19.8237 20.6763C19.729 20.5815 19.729 20.4185 19.8237 20.3237Z" fill="#292D32" stroke="#9E9E9E"/>
</svg>
