<svg width="24" height="25" viewBox="0 0 24 25" fill="none" xmlns="http://www.w3.org/2000/svg">
<path d="M12 3C17.2339 3 21.5 7.26614 21.5 12.5C21.5 15.2526 20.3143 17.7313 18.4219 19.4717L18.0596 19.8047L17.96 19.8857C17.8774 19.9546 17.7915 20.0219 17.7021 20.0889L17.4229 20.29L17.4189 20.293C17.3093 20.3713 17.3031 20.3826 17.2617 20.4062L17.249 20.4131L17.2373 20.4209C17.0488 20.5434 16.8797 20.6353 16.6621 20.7656C16.6167 20.7916 16.567 20.8231 16.54 20.8398L16.4668 20.8828L16.458 20.8867C16.2591 20.9909 16.0609 21.0862 15.8633 21.1709L15.8496 21.1758L15.8359 21.1826C15.7515 21.2248 15.6955 21.2524 15.6445 21.2715L15.6338 21.2764L15.623 21.2803C15.4282 21.3638 15.243 21.4164 14.9863 21.5098C14.8954 21.5357 14.8107 21.5663 14.748 21.5898C14.5489 21.6584 14.3477 21.6975 14.0791 21.7646V21.7656C14.025 21.7757 13.9796 21.7857 13.9531 21.793C13.9236 21.8011 13.9125 21.8038 13.9092 21.8047L13.8926 21.8076L13.875 21.8115C13.6174 21.8667 13.3556 21.9039 13.0781 21.9326L13.043 21.9365L13.0088 21.9453C12.9985 21.9479 12.992 21.9489 12.9863 21.9502H12.9854L12.9648 21.9521C12.6453 21.9812 12.3209 22 12 22C11.6894 22 11.3755 21.9817 11.0557 21.9541C11.0195 21.9459 10.9678 21.9385 10.9102 21.9346L10.9111 21.9326C10.6338 21.9039 10.3727 21.8667 10.1152 21.8115L10.0938 21.8066L10.0723 21.8037L9.92773 21.7695L9.91895 21.7666L9.91113 21.7646L9.20996 21.5801L9.20117 21.5771L9.19141 21.5752L9.00586 21.5117L8.99414 21.5078L8.98145 21.5039L8.6709 21.3975C8.56722 21.3598 8.46333 21.3199 8.35938 21.2773L8.3457 21.2715L8.15332 21.1826L8.13672 21.1748L8.11914 21.167L7.82227 21.0361L7.54102 20.8916C7.51336 20.8757 7.48272 20.8572 7.44727 20.8359C7.41083 20.8141 7.36855 20.7887 7.32812 20.7656L7.32031 20.7617L7.31152 20.7568L7.0293 20.5986C6.93798 20.5438 6.84912 20.4869 6.7627 20.4277H6.76172C6.72675 20.4029 6.69472 20.3799 6.66504 20.3594C6.63223 20.3367 6.60189 20.3155 6.57031 20.293H6.56934C6.36851 20.1451 6.19316 20.0215 6.03027 19.8857L6.00977 19.8691L5.9873 19.8535L5.86035 19.7461H5.85938C5.81532 19.7073 5.76906 19.6702 5.73047 19.6396V19.6211L5.56934 19.4727C3.68601 17.732 2.5 15.2528 2.5 12.5C2.5 7.26614 6.76614 3 12 3ZM12 3.5C7.03386 3.5 3 7.53386 3 12.5C3 14.9578 3.99667 17.1923 5.60449 18.8213L5.99609 19.2188L6.34863 18.7852C6.55155 18.5349 6.78322 18.3005 7.05273 18.0898L7.33496 17.8877L7.33691 17.8857C8.60312 17.0416 10.2944 16.6055 12.0078 16.6055C13.6141 16.6055 15.1952 16.9888 16.4209 17.7314L16.6611 17.8848L16.665 17.8877C17.0628 18.1499 17.392 18.4536 17.6465 18.7783L17.9971 19.2256L18.3955 18.8213C20.0033 17.1923 21 14.9578 21 12.5C21 7.53386 16.9661 3.5 12 3.5Z" fill="#F2BC25" stroke="#E6AA00"/>
<path d="M12 7.92969C13.7379 7.92969 15.1591 9.29632 15.2461 11.0127L15.25 11.1797C15.24 12.9412 13.8621 14.3593 12.1123 14.4199H11.9639C10.12 14.3673 8.75 12.9345 8.75 11.1797C8.75 9.38583 10.2061 7.92969 12 7.92969Z" fill="#F2BC25" stroke="#E6AA00"/>
</svg>
